<?xml version="1.0" ?><svg height="32" id="svg6485" version="1.1" viewBox="0 0 32 32" width="32" xmlns="http://www.w3.org/2000/svg" xmlns:cc="http://creativecommons.org/ns#" xmlns:dc="http://purl.org/dc/elements/1.1/" xmlns:inkscape="http://www.inkscape.org/namespaces/inkscape" xmlns:rdf="http://www.w3.org/1999/02/22-rdf-syntax-ns#" xmlns:sodipodi="http://sodipodi.sourceforge.net/DTD/sodipodi-0.dtd" xmlns:svg="http://www.w3.org/2000/svg" xmlns:xlink="http://www.w3.org/1999/xlink"><defs id="defs6487"><linearGradient id="linearGradient5458"><stop id="stop5460" offset="0" style="stop-color:#000092;stop-opacity:1"/><stop id="stop5462" offset="1" style="stop-color:#ff00f3;stop-opacity:1"/></linearGradient><linearGradient gradientUnits="userSpaceOnUse" id="linearGradient5464" x1="3" x2="29" xlink:href="#linearGradient5458" y1="16.001664" y2="16.001664"/></defs><g id="layer1" transform="translate(0,-1020.3622)"><text id="text4366" style="font-style:normal;font-weight:normal;font-size:11.25px;line-height:125%;font-family:Sans;letter-spacing:0px;word-spacing:0px;fill:#000000;fill-opacity:1;stroke:none;stroke-width:1px;stroke-linecap:butt;stroke-linejoin:miter;stroke-opacity:1" x="12" xml:space="preserve" y="1036.3622"><tspan id="tspan4368" x="12" y="1036.3622"/></text><g id="text4981" style="font-style:normal;font-variant:normal;font-weight:normal;font-stretch:normal;font-size:12.37186241px;line-height:125%;font-family:'Roboto Condensed';-inkscape-font-specification:'Roboto Condensed, ';letter-spacing:0px;word-spacing:0px;fill:#000000;fill-opacity:1;stroke:none;stroke-width:1px;stroke-linecap:butt;stroke-linejoin:miter;stroke-opacity:1" transform="scale(1.1477838,0.87124422)"/><path d="M 14.494141 0.99804688 A 0.50005 0.50005 0 0 0 14.146484 1.8574219 L 15.349609 3.0605469 C 8.4794435 3.402222 3 9.073121 3 16.027344 C 3 16.924044 3.090462 17.800084 3.2636719 18.646484 C 3.4368802 19.492884 3.6924946 20.309991 4.0214844 21.087891 C 4.3504771 21.865691 4.753494 22.605275 5.2207031 23.296875 C 5.6879122 23.988475 6.2186541 24.632803 6.8066406 25.220703 C 7.3946272 25.808703 8.0389213 26.339341 8.7304688 26.806641 C 9.4220446 27.273841 10.16165 27.676859 10.939453 28.005859 A 0.50005 0.50005 0 1 0 11.330078 27.085938 C 10.612402 26.782338 9.9294484 26.409916 9.2910156 25.978516 C 8.6525544 25.547216 8.058666 25.056672 7.515625 24.513672 C 6.9725841 23.970672 6.4801553 23.374728 6.0488281 22.736328 C 5.617501 22.097828 5.246901 21.416919 4.9433594 20.699219 C 4.6398148 19.981519 4.4039547 19.228266 4.2441406 18.447266 C 4.0843281 17.666266 4 16.856444 4 16.027344 C 4 9.6529666 8.9591693 4.4611933 15.232422 4.0644531 L 14.146484 5.1503906 A 0.50005 0.50005 0 1 0 14.853516 5.8574219 L 16.853516 3.8574219 A 0.50005 0.50005 0 0 0 16.853516 3.1484375 L 14.853516 1.1503906 A 0.50005 0.50005 0 0 0 14.494141 0.99804688 z M 20.816406 4.0078125 A 0.50005 0.50005 0 0 0 20.669922 4.9707031 C 21.387598 5.2743031 22.070552 5.6448719 22.708984 6.0761719 C 23.347445 6.5075719 23.941334 6.9999688 24.484375 7.5429688 C 25.027416 8.0859687 25.519845 8.6798594 25.951172 9.3183594 C 26.382499 9.9567594 26.753099 10.639722 27.056641 11.357422 C 27.360185 12.075122 27.596045 12.828375 27.755859 13.609375 C 27.915673 14.390375 28 15.198244 28 16.027344 C 28 22.419493 23.012924 27.619299 16.714844 27.990234 L 17.853516 26.851562 A 0.50005 0.50005 0 0 0 17.490234 25.994141 A 0.50005 0.50005 0 0 0 17.146484 26.144531 L 15.146484 28.144531 A 0.50005 0.50005 0 0 0 15.146484 28.851562 L 17.146484 30.851562 A 0.50005 0.50005 0 1 0 17.853516 30.144531 L 16.701172 28.992188 C 23.547553 28.625127 29 22.964451 29 16.027344 C 29 15.130644 28.90954 14.254703 28.736328 13.408203 C 28.56312 12.561803 28.307505 11.744697 27.978516 10.966797 C 27.649523 10.188997 27.246506 9.4512656 26.779297 8.7597656 C 26.312088 8.0681656 25.781346 7.4238375 25.193359 6.8359375 C 24.605373 6.2479375 23.961078 5.7152469 23.269531 5.2480469 C 22.577956 4.7807469 21.83835 4.3778281 21.060547 4.0488281 A 0.50005 0.50005 0 0 0 20.867188 4.0078125 A 0.50005 0.50005 0 0 0 20.816406 4.0078125 z M 16 8.0273438 C 11.587645 8.0273438 8 11.614944 8 16.027344 C 8 20.439644 11.587645 24.027344 16 24.027344 C 20.412355 24.027344 24 20.439644 24 16.027344 C 24 11.614944 20.412355 8.0273438 16 8.0273438 z M 16 9.0273438 C 19.871916 9.0273438 23 12.155444 23 16.027344 C 23 19.899244 19.871916 23.027344 16 23.027344 C 12.128084 23.027344 9 19.899244 9 16.027344 C 9 12.155444 12.128084 9.0273438 16 9.0273438 z M 15.646484 11 L 15.646484 12.158203 C 15.332155 12.196828 15.047207 12.272491 14.792969 12.384766 C 14.538732 12.49704 14.322856 12.640938 14.142578 12.816406 C 13.966923 12.991817 13.829495 13.198895 13.732422 13.4375 C 13.639972 13.676105 13.59375 13.938878 13.59375 14.226562 C 13.59375 14.538875 13.647589 14.81413 13.753906 15.052734 C 13.864846 15.291339 14.021219 15.501155 14.224609 15.683594 C 14.432622 15.866032 14.683392 16.025266 14.974609 16.162109 C 15.27045 16.295468 15.602856 16.413864 15.972656 16.515625 C 16.250007 16.606815 16.485542 16.702505 16.679688 16.800781 C 16.878455 16.899 17.038018 17.005276 17.158203 17.121094 C 17.283012 17.236853 17.372266 17.360782 17.427734 17.494141 C 17.483203 17.627499 17.511719 17.773771 17.511719 17.931641 C 17.511719 18.121107 17.477537 18.292881 17.408203 18.447266 C 17.338866 18.598165 17.235615 18.727148 17.101562 18.835938 C 16.972132 18.941184 16.811332 19.024333 16.617188 19.083984 C 16.427665 19.140325 16.209837 19.167969 15.964844 19.167969 C 15.789188 19.167969 15.613155 19.145495 15.4375 19.099609 C 15.261845 19.054014 15.102282 18.973239 14.958984 18.857422 C 14.815687 18.741663 14.701109 18.585166 14.613281 18.388672 C 14.525454 18.192177 14.482422 17.94474 14.482422 17.646484 L 13.261719 17.646484 C 13.261719 18.042959 13.324411 18.383769 13.449219 18.667969 C 13.574026 18.948684 13.739253 19.183159 13.947266 19.369141 C 14.159901 19.555122 14.403054 19.696704 14.675781 19.794922 C 14.948509 19.893372 15.230266 19.95887 15.521484 19.990234 L 15.521484 21 L 16.486328 21 L 16.486328 19.990234 C 16.833015 19.955152 17.144525 19.884543 17.421875 19.779297 C 17.699225 19.674051 17.934761 19.53289 18.128906 19.357422 C 18.323052 19.182011 18.47376 18.974933 18.580078 18.736328 C 18.686396 18.49418 18.738281 18.223616 18.738281 17.921875 C 18.738281 17.613106 18.687633 17.34053 18.585938 17.105469 C 18.484242 16.870349 18.333533 16.663329 18.134766 16.484375 C 17.935998 16.305421 17.691608 16.148925 17.400391 16.015625 C 17.109173 15.878782 16.773576 15.755274 16.394531 15.646484 C 16.098691 15.551751 15.849875 15.45564 15.646484 15.357422 C 15.447717 15.255661 15.284964 15.149384 15.160156 15.037109 C 15.035347 14.924777 14.946094 14.801269 14.890625 14.667969 C 14.839778 14.531125 14.814453 14.379378 14.814453 14.210938 C 14.814453 14.028499 14.839778 13.861837 14.890625 13.710938 C 14.946095 13.560096 15.026495 13.431476 15.132812 13.326172 C 15.243753 13.217441 15.381181 13.13387 15.542969 13.074219 C 15.704756 13.014568 15.895307 12.984375 16.117188 12.984375 C 16.329823 12.984375 16.519137 13.024792 16.685547 13.105469 C 16.851956 13.186204 16.990622 13.297593 17.101562 13.441406 C 17.212504 13.585278 17.296094 13.75663 17.351562 13.953125 C 17.411653 14.14962 17.441406 14.36449 17.441406 14.599609 L 18.65625 14.599609 C 18.65625 13.88728 18.477027 13.326546 18.121094 12.916016 C 17.769784 12.502 17.27215 12.251768 16.625 12.164062 L 16.625 11 L 15.646484 11 z " id="path5206" style="color:#000000;font-style:normal;font-variant:normal;font-weight:normal;font-stretch:normal;font-size:medium;line-height:normal;font-family:sans-serif;text-indent:0;text-align:start;text-decoration:none;text-decoration-line:none;text-decoration-style:solid;text-decoration-color:#000000;letter-spacing:normal;word-spacing:normal;text-transform:none;direction:ltr;block-progression:tb;writing-mode:lr-tb;baseline-shift:baseline;text-anchor:start;white-space:normal;clip-rule:nonzero;display:inline;overflow:visible;visibility:visible;opacity:1;isolation:auto;mix-blend-mode:normal;color-interpolation:sRGB;color-interpolation-filters:linearRGB;solid-color:#000000;solid-opacity:1;fill:url(#linearGradient5464);fill-opacity:1;fill-rule:nonzero;stroke:none;stroke-width:1;stroke-linecap:round;stroke-linejoin:round;stroke-miterlimit:4;stroke-dasharray:none;stroke-dashoffset:0;stroke-opacity:1;color-rendering:auto;image-rendering:auto;shape-rendering:auto;text-rendering:auto;enable-background:accumulate" transform="translate(0,1020.3622)"/><g id="text5027" style="font-style:normal;font-variant:normal;font-weight:normal;font-stretch:normal;font-size:12.37195492px;line-height:125%;font-family:'Roboto Condensed';-inkscape-font-specification:'Roboto Condensed, ';letter-spacing:0px;word-spacing:0px;fill:#000000;fill-opacity:1;stroke:none;stroke-width:1px;stroke-linecap:butt;stroke-linejoin:miter;stroke-opacity:1" transform="scale(1.1477838,0.87124422)"/></g></svg>